<svg xmlns="http://www.w3.org/2000/svg" viewBox="0 0 496.15 107.7">
    <defs>
        <style>
            .cls-1 {
                fill: #fff;
            }
        </style>
    </defs>
    <g id="Layer_2" data-name="Layer 2">
        <g id="Layer_1-2" data-name="Layer 1">
            <path class="cls-1"
                d="M80.85,36.56c0,22.29-16.08,35.64-42.78,35.64H7.74v34.74H0V.76H38.07C64.77.76,80.85,14.11,80.85,36.56Zm-7.89,0C73,18.2,60.83,7.74,38.07,7.74H7.74V65.23H38.07C60.83,65.23,73,54.76,73,36.56Z" />
            <path class="cls-1"
                d="M189.76,46.11v60.83H182V74.18H111v32.76h-7.74V46.11C103.29,15.47,120.44,0,146.53,0,172.77,0,189.76,15.47,189.76,46.11ZM182,67.2V45.35c0-25.63-13.5-38.22-35.49-38.22S111,19.72,111,45.35V67.2Z" />
            <path class="cls-1"
                d="M299.57,106.94l-25.33-35.5a74.19,74.19,0,0,1-10.32.76H233.59v34.74h-7.74V.76h38.07c26.7,0,42.78,13.35,42.78,35.8,0,16.83-9.1,28.51-24.88,33.22l26.55,37.16ZM263.92,65.38c22.76,0,34.89-10.62,34.89-28.82,0-18.36-12.13-28.82-34.89-28.82H233.59V65.38Z" />
            <path class="cls-1"
                d="M408.17,94.05c-8.49,8.64-23.51,13.65-40.95,13.65-27.61,0-41.72-12.29-41.72-29.13,0-13.8,9.26-22.75,22.45-25.78-11.37-3.49-17.9-12.44-17.9-24.27C330.05,12.89,343.25,0,369.49,0c12.74,0,25.33,3.19,33.83,8.8L400.74,15A59.74,59.74,0,0,0,369.8,6.83c-21.39,0-31.86,9.55-31.86,22.14,0,13.2,9.71,20.63,26.09,20.63h25.79v7H363.73c-17.9,0-30.34,6.83-30.34,21.54,0,13.5,10.92,22.75,34.13,22.75,15.62,0,29.28-4.7,37.32-12.59Z" />
            <path class="cls-1"
                d="M419.24,93.29l3.49-5.77c7.28,7.59,20.78,13.35,35,13.35,21.24,0,30.64-9.25,30.64-20.78,0-31.85-66.29-12.74-66.29-51.88,0-15,11.53-28.21,37.62-28.21,11.68,0,23.82,3.64,32,9.56l-2.88,6.22a52.47,52.47,0,0,0-29.13-8.95c-20.63,0-29.88,9.55-29.88,21.23,0,31.86,66.29,13.05,66.29,51.58,0,15-12,28.06-38.23,28.06C442.15,107.7,427,101.78,419.24,93.29Z" />
        </g>
    </g>
</svg>